<svg width="800" height="800" viewBox="0 0 800 800" fill="none" xmlns="http://www.w3.org/2000/svg">
<path d="M146.501 400.047C146.515 413.853 157.719 425.033 171.526 425.02C185.333 425.007 196.515 413.803 196.501 399.997L146.501 400.047ZM311.167 184.453L301.32 161.475L301.289 161.488L311.167 184.453ZM441.867 171.12L446.95 146.642L446.873 146.626L441.867 171.12ZM590.473 340.26C594.287 353.53 608.137 361.193 621.407 357.38C634.677 353.567 642.343 339.717 638.527 326.447L590.473 340.26ZM590.303 327.065C586.83 340.43 594.85 354.077 608.213 357.55C621.577 361.023 635.223 353.003 638.697 339.64L590.303 327.065ZM662.363 248.575C665.837 235.212 657.82 221.563 644.457 218.091C631.093 214.618 617.443 222.635 613.97 235.999L662.363 248.575ZM607.843 357.45C621.15 361.127 634.92 353.32 638.597 340.013C642.277 326.704 634.467 312.934 621.16 309.257L607.843 357.45ZM532.86 284.857C519.55 281.179 505.78 288.986 502.103 302.295C498.427 315.603 506.233 329.373 519.543 333.05L532.86 284.857ZM663.167 399.997C663.153 386.187 651.95 375.007 638.143 375.02C624.337 375.033 613.153 386.237 613.167 400.047L663.167 399.997ZM367.8 628.92L362.717 653.397L362.797 653.413L367.8 628.92ZM219.195 459.78C215.38 446.51 201.531 438.847 188.261 442.66C174.991 446.473 167.326 460.323 171.14 473.593L219.195 459.78ZM219.364 472.973C222.837 459.613 214.819 445.963 201.456 442.49C188.092 439.017 174.444 447.037 170.971 460.4L219.364 472.973ZM147.305 551.467C143.832 564.83 151.849 578.477 165.213 581.95C178.576 585.423 192.224 577.403 195.697 564.04L147.305 551.467ZM201.826 442.59C188.518 438.913 174.748 446.72 171.071 460.027C167.393 473.337 175.2 487.107 188.509 490.783L201.826 442.59ZM276.809 515.183C290.117 518.86 303.887 511.053 307.564 497.747C311.242 484.437 303.435 470.667 290.126 466.99L276.809 515.183ZM196.501 399.997C196.46 358.83 208.314 318.53 230.639 283.945L188.63 256.829C161.08 299.511 146.45 349.243 146.501 400.047L196.501 399.997ZM230.639 283.945C252.492 250.021 283.977 223.365 321.046 207.419L301.289 161.488C255.084 181.363 215.868 214.545 188.63 256.829L230.639 283.945ZM321.015 207.432C357.527 191.785 397.943 187.662 436.863 195.614L446.873 146.626C397.973 136.635 347.193 141.816 301.32 161.475L321.015 207.432ZM436.783 195.598C476.01 203.744 511.863 223.53 539.67 252.371L575.667 217.669C540.88 181.587 496.023 156.834 446.95 146.642L436.783 195.598ZM539.67 252.371C563.53 277.066 580.987 307.257 590.473 340.26L638.527 326.447C626.783 285.583 605.21 248.245 575.667 217.669L539.67 252.371ZM638.697 339.64L662.363 248.575L613.97 235.999L590.303 327.065L638.697 339.64ZM621.16 309.257L532.86 284.857L519.543 333.05L607.843 357.45L621.16 309.257ZM613.167 400.047C613.21 441.21 601.353 481.51 579.03 516.097L621.04 543.21C648.59 500.53 663.217 450.797 663.167 399.997L613.167 400.047ZM579.03 516.097C557.177 550.023 525.69 576.677 488.623 592.62L508.35 638.567C554.553 618.69 593.803 585.493 621.04 543.21L579.03 516.097ZM488.623 592.62C452.113 608.267 411.723 612.377 372.807 604.427L362.797 653.413C411.693 663.403 462.477 658.223 508.35 638.567L488.623 592.62ZM372.883 604.443C333.66 596.297 297.804 576.51 269.999 547.67L234.003 582.37C268.788 618.453 313.645 643.207 362.717 653.397L372.883 604.443ZM269.999 547.67C246.138 522.973 228.681 492.783 219.195 459.78L171.14 473.593C182.886 514.457 204.458 551.793 234.003 582.37L269.999 547.67ZM170.971 460.4L147.305 551.467L195.697 564.04L219.364 472.973L170.971 460.4ZM188.509 490.783L276.809 515.183L290.126 466.99L201.826 442.59L188.509 490.783Z" fill="white"/>
</svg>
